<svg xmlns="http://www.w3.org/2000/svg" width="1090" height="1039" viewBox="0 0 1090 1039">
    <g fill="#000" fill-rule="evenodd">
        <g opacity=".15" transform="translate(44)">
            <circle cx="1.5" cy="1.5" r="1.5"/>
            <circle cx="1.5" cy="27.5" r="1.5"/>
            <circle cx="1.5" cy="14.5" r="1.5"/>
            <circle cx="1.5" cy="39.5" r="1.5"/>
            <circle cx="1.5" cy="53.5" r="1.5"/>
            <circle cx="1.5" cy="7.5" r="1.5"/>
            <circle cx="1.5" cy="33.5" r="1.5"/>
            <circle cx="1.5" cy="21.5" r="1.5"/>
            <circle cx="1.5" cy="46.5" r="1.5"/>
            <circle cx="1.5" cy="59.5" r="1.5"/>
            <circle cx="27.5" cy="1.5" r="1.5"/>
            <circle cx="27.5" cy="27.5" r="1.5"/>
            <circle cx="27.5" cy="14.5" r="1.5"/>
            <circle cx="27.5" cy="7.5" r="1.5"/>
            <circle cx="27.5" cy="33.5" r="1.5"/>
            <circle cx="27.5" cy="21.5" r="1.5"/>
            <circle cx="14.5" cy="1.5" r="1.5"/>
            <circle cx="14.5" cy="27.5" r="1.5"/>
            <circle cx="14.5" cy="14.5" r="1.5"/>
            <circle cx="14.5" cy="39.5" r="1.5"/>
            <circle cx="14.5" cy="7.5" r="1.5"/>
            <circle cx="14.5" cy="33.5" r="1.5"/>
            <circle cx="14.5" cy="21.5" r="1.5"/>
            <circle cx="14.5" cy="46.5" r="1.5"/>
            <circle cx="39.5" cy="1.5" r="1.5"/>
            <circle cx="39.5" cy="14.5" r="1.5"/>
            <circle cx="39.5" cy="7.5" r="1.5"/>
            <circle cx="39.5" cy="21.5" r="1.5"/>
            <circle cx="53.5" cy="1.5" r="1.5"/>
            <circle cx="53.5" cy="7.5" r="1.5"/>
            <circle cx="7.5" cy="1.5" r="1.5"/>
            <circle cx="7.5" cy="27.5" r="1.5"/>
            <circle cx="7.5" cy="14.5" r="1.5"/>
            <circle cx="7.5" cy="39.5" r="1.5"/>
            <circle cx="7.5" cy="53.5" r="1.5"/>
            <circle cx="7.5" cy="7.5" r="1.5"/>
            <circle cx="7.5" cy="33.5" r="1.5"/>
            <circle cx="7.5" cy="21.5" r="1.5"/>
            <circle cx="7.5" cy="46.5" r="1.5"/>
            <circle cx="33.5" cy="1.5" r="1.5"/>
            <circle cx="33.5" cy="27.5" r="1.5"/>
            <circle cx="33.5" cy="14.5" r="1.5"/>
            <circle cx="33.5" cy="7.5" r="1.5"/>
            <circle cx="33.5" cy="21.5" r="1.5"/>
            <circle cx="21.5" cy="1.5" r="1.5"/>
            <circle cx="21.5" cy="27.5" r="1.5"/>
            <circle cx="21.5" cy="14.5" r="1.5"/>
            <circle cx="21.5" cy="39.5" r="1.5"/>
            <circle cx="21.5" cy="7.5" r="1.5"/>
            <circle cx="21.5" cy="33.5" r="1.5"/>
            <circle cx="21.5" cy="21.5" r="1.5"/>
            <circle cx="46.5" cy="1.5" r="1.5"/>
            <circle cx="46.5" cy="14.5" r="1.5"/>
            <circle cx="46.5" cy="7.5" r="1.5"/>
            <circle cx="59.5" cy="1.5" r="1.5"/>
        </g>
        <g opacity=".1" transform="translate(1002 951)">
            <circle cx="2.5" cy="2.5" r="2.5"/>
            <circle cx="2.5" cy="39.5" r="2.5"/>
            <circle cx="2.5" cy="21.5" r="2.5"/>
            <circle cx="2.5" cy="57.5" r="2.5"/>
            <circle cx="2.5" cy="76.5" r="2.5"/>
            <circle cx="2.5" cy="11.5" r="2.5"/>
            <circle cx="2.5" cy="48.5" r="2.5"/>
            <circle cx="2.5" cy="30.5" r="2.5"/>
            <circle cx="2.5" cy="66.5" r="2.5"/>
            <circle cx="2.5" cy="85.5" r="2.5"/>
            <circle cx="39.5" cy="2.5" r="2.5"/>
            <circle cx="39.5" cy="39.5" r="2.5"/>
            <circle cx="39.5" cy="21.5" r="2.5"/>
            <circle cx="39.5" cy="11.5" r="2.5"/>
            <circle cx="39.5" cy="48.5" r="2.5"/>
            <circle cx="39.5" cy="30.5" r="2.5"/>
            <circle cx="21.5" cy="2.5" r="2.5"/>
            <circle cx="21.5" cy="39.5" r="2.5"/>
            <circle cx="21.5" cy="21.5" r="2.5"/>
            <circle cx="21.5" cy="57.5" r="2.5"/>
            <circle cx="21.5" cy="11.5" r="2.5"/>
            <circle cx="21.5" cy="48.5" r="2.5"/>
            <circle cx="21.5" cy="30.5" r="2.5"/>
            <circle cx="21.5" cy="66.5" r="2.5"/>
            <circle cx="57.5" cy="2.5" r="2.5"/>
            <circle cx="57.5" cy="21.5" r="2.5"/>
            <circle cx="57.5" cy="11.5" r="2.5"/>
            <circle cx="57.5" cy="30.5" r="2.5"/>
            <circle cx="76.5" cy="2.5" r="2.5"/>
            <circle cx="76.5" cy="11.5" r="2.5"/>
            <circle cx="11.5" cy="2.5" r="2.5"/>
            <circle cx="11.5" cy="39.5" r="2.5"/>
            <circle cx="11.5" cy="21.5" r="2.5"/>
            <circle cx="11.5" cy="57.5" r="2.5"/>
            <circle cx="11.5" cy="76.5" r="2.5"/>
            <circle cx="11.5" cy="11.5" r="2.5"/>
            <circle cx="11.5" cy="48.5" r="2.5"/>
            <circle cx="11.5" cy="30.5" r="2.5"/>
            <circle cx="11.5" cy="66.5" r="2.5"/>
            <circle cx="48.5" cy="2.5" r="2.5"/>
            <circle cx="48.5" cy="39.5" r="2.5"/>
            <circle cx="48.5" cy="21.5" r="2.5"/>
            <circle cx="48.5" cy="11.5" r="2.5"/>
            <circle cx="48.5" cy="30.5" r="2.5"/>
            <circle cx="30.5" cy="2.5" r="2.5"/>
            <circle cx="30.5" cy="39.5" r="2.5"/>
            <circle cx="30.5" cy="21.5" r="2.5"/>
            <circle cx="30.5" cy="57.5" r="2.5"/>
            <circle cx="30.5" cy="11.5" r="2.5"/>
            <circle cx="30.5" cy="48.5" r="2.5"/>
            <circle cx="30.5" cy="30.5" r="2.5"/>
            <circle cx="66.5" cy="2.5" r="2.5"/>
            <circle cx="66.5" cy="21.5" r="2.5"/>
            <circle cx="66.5" cy="11.5" r="2.5"/>
            <circle cx="85.5" cy="2.5" r="2.5"/>
        </g>
        <g opacity=".05" transform="matrix(1 0 0 -1 0 1039)">
            <circle cx="7" cy="7" r="7"/>
            <circle cx="7" cy="103" r="7"/>
            <circle cx="7" cy="55" r="7"/>
            <circle cx="7" cy="151" r="7"/>
            <circle cx="7" cy="199" r="7"/>
            <circle cx="7" cy="31" r="7"/>
            <circle cx="7" cy="127" r="7"/>
            <circle cx="7" cy="79" r="7"/>
            <circle cx="7" cy="175" r="7"/>
            <circle cx="7" cy="223" r="7"/>
            <circle cx="103" cy="7" r="7"/>
            <circle cx="103" cy="103" r="7"/>
            <circle cx="103" cy="55" r="7"/>
            <circle cx="103" cy="31" r="7"/>
            <circle cx="103" cy="127" r="7"/>
            <circle cx="103" cy="79" r="7"/>
            <circle cx="55" cy="7" r="7"/>
            <circle cx="55" cy="103" r="7"/>
            <circle cx="55" cy="55" r="7"/>
            <circle cx="55" cy="151" r="7"/>
            <circle cx="55" cy="31" r="7"/>
            <circle cx="55" cy="127" r="7"/>
            <circle cx="55" cy="79" r="7"/>
            <circle cx="55" cy="175" r="7"/>
            <circle cx="151" cy="7" r="7"/>
            <circle cx="151" cy="55" r="7"/>
            <circle cx="151" cy="31" r="7"/>
            <circle cx="151" cy="79" r="7"/>
            <circle cx="199" cy="7" r="7"/>
            <circle cx="199" cy="31" r="7"/>
            <circle cx="31" cy="7" r="7"/>
            <circle cx="31" cy="103" r="7"/>
            <circle cx="31" cy="55" r="7"/>
            <circle cx="31" cy="151" r="7"/>
            <circle cx="31" cy="199" r="7"/>
            <circle cx="31" cy="31" r="7"/>
            <circle cx="31" cy="127" r="7"/>
            <circle cx="31" cy="79" r="7"/>
            <circle cx="31" cy="175" r="7"/>
            <circle cx="127" cy="7" r="7"/>
            <circle cx="127" cy="103" r="7"/>
            <circle cx="127" cy="55" r="7"/>
            <circle cx="127" cy="31" r="7"/>
            <circle cx="127" cy="79" r="7"/>
            <circle cx="79" cy="7" r="7"/>
            <circle cx="79" cy="103" r="7"/>
            <circle cx="79" cy="55" r="7"/>
            <circle cx="79" cy="151" r="7"/>
            <circle cx="79" cy="31" r="7"/>
            <circle cx="79" cy="127" r="7"/>
            <circle cx="79" cy="79" r="7"/>
            <circle cx="175" cy="7" r="7"/>
            <circle cx="175" cy="55" r="7"/>
            <circle cx="175" cy="31" r="7"/>
            <circle cx="223" cy="7" r="7"/>
        </g>
        <g opacity=".05" transform="matrix(-1 0 0 1 1046 50)">
            <circle cx="7" cy="7" r="7"/>
            <circle cx="7" cy="103" r="7"/>
            <circle cx="7" cy="55" r="7"/>
            <circle cx="7" cy="151" r="7"/>
            <circle cx="7" cy="199" r="7"/>
            <circle cx="7" cy="31" r="7"/>
            <circle cx="7" cy="127" r="7"/>
            <circle cx="7" cy="79" r="7"/>
            <circle cx="7" cy="175" r="7"/>
            <circle cx="7" cy="223" r="7"/>
            <circle cx="103" cy="7" r="7"/>
            <circle cx="103" cy="103" r="7"/>
            <circle cx="103" cy="55" r="7"/>
            <circle cx="103" cy="31" r="7"/>
            <circle cx="103" cy="127" r="7"/>
            <circle cx="103" cy="79" r="7"/>
            <circle cx="55" cy="7" r="7"/>
            <circle cx="55" cy="103" r="7"/>
            <circle cx="55" cy="55" r="7"/>
            <circle cx="55" cy="151" r="7"/>
            <circle cx="55" cy="31" r="7"/>
            <circle cx="55" cy="127" r="7"/>
            <circle cx="55" cy="79" r="7"/>
            <circle cx="55" cy="175" r="7"/>
            <circle cx="151" cy="7" r="7"/>
            <circle cx="151" cy="55" r="7"/>
            <circle cx="151" cy="31" r="7"/>
            <circle cx="151" cy="79" r="7"/>
            <circle cx="199" cy="7" r="7"/>
            <circle cx="199" cy="31" r="7"/>
            <circle cx="31" cy="7" r="7"/>
            <circle cx="31" cy="103" r="7"/>
            <circle cx="31" cy="55" r="7"/>
            <circle cx="31" cy="151" r="7"/>
            <circle cx="31" cy="199" r="7"/>
            <circle cx="31" cy="31" r="7"/>
            <circle cx="31" cy="127" r="7"/>
            <circle cx="31" cy="79" r="7"/>
            <circle cx="31" cy="175" r="7"/>
            <circle cx="127" cy="7" r="7"/>
            <circle cx="127" cy="103" r="7"/>
            <circle cx="127" cy="55" r="7"/>
            <circle cx="127" cy="31" r="7"/>
            <circle cx="127" cy="79" r="7"/>
            <circle cx="79" cy="7" r="7"/>
            <circle cx="79" cy="103" r="7"/>
            <circle cx="79" cy="55" r="7"/>
            <circle cx="79" cy="151" r="7"/>
            <circle cx="79" cy="31" r="7"/>
            <circle cx="79" cy="127" r="7"/>
            <circle cx="79" cy="79" r="7"/>
            <circle cx="175" cy="7" r="7"/>
            <circle cx="175" cy="55" r="7"/>
            <circle cx="175" cy="31" r="7"/>
            <circle cx="223" cy="7" r="7"/>
        </g>
    </g>
</svg>
